<svg width="126" height="52" viewBox="0 0 126 52" fill="none" xmlns="http://www.w3.org/2000/svg">
<path d="M107.666 37.8571H90.0531L107.666 18.1728V37.8571ZM122.068 37.8571V0.0539551L87.0068 39.2226H60.0905C58.9317 39.2226 58.0047 38.2901 58.0047 37.1243C58.0047 36.325 58.4351 35.6589 59.0641 35.2924C59.0973 35.2924 59.0973 35.2591 59.1304 35.2591C61.8452 33.8603 64.4607 33.1275 65.9505 32.6946L66.414 32.5613C67.308 32.2949 68.4337 32.0617 69.5924 31.7953C69.9897 31.6954 70.4201 31.5954 70.8505 31.5288C77.9687 29.8968 87.6026 27.0991 87.6026 15.6748C87.6026 13.1435 86.9741 10.5788 85.5172 8.28072C83.1997 4.61698 78.8294 1.65268 71.6782 0.786703C70.2876 0.620173 68.7647 0.520247 67.1425 0.520247C56.0513 0.520247 48.569 6.38226 48.3041 15.1753C48.3041 15.3417 48.3041 15.475 48.3041 15.6415C48.3041 20.5043 52.2109 24.4345 57.0446 24.4345C61.8783 24.4345 65.785 20.471 65.785 15.6415C65.785 10.7787 61.8783 6.84851 57.0446 6.84851C56.7798 6.84851 56.5149 6.84851 56.25 6.8818H56.2169C54.4291 7.04838 52.7736 7.78109 51.4825 8.84695C52.4757 7.28155 53.8331 5.94922 55.4886 4.85015C55.5216 4.85015 55.5216 4.81685 55.5548 4.81685C58.5344 2.885 62.5074 1.81921 67.1755 1.81921C67.6722 1.81921 68.1687 1.81921 68.6323 1.85252C68.7316 1.85252 68.8309 1.85252 68.9302 1.85252C69.9566 1.98574 70.7512 2.85171 70.7512 3.91757V28.2981C70.7512 29.4305 69.9566 30.3964 68.9302 30.6628C68.864 30.6628 68.8309 30.6961 68.7647 30.6961C67.7715 30.896 66.8775 31.1292 66.083 31.3623L65.6525 31.4955C63.5006 32.095 59.0311 33.3607 55.0912 36.3916C53.7007 37.4574 52.5088 38.6231 51.4825 39.9221C48.9001 43.2194 47.6089 47.2496 47.6089 51.9458H75.7174L87.0731 39.2559H107.699V51.9458H122.101V39.2559H125.71V37.8904H122.068V37.8571ZM7.2837 39.4558L16.1566 20.3711L24.9963 39.4558H7.2837ZM19.1032 10.7787C17.3153 14.5423 13.6072 14.9421 13.6072 14.9421L15.3951 18.7723V18.8056L0 51.9126H1.48984L6.65465 40.8214H25.6254L30.7571 51.9126H46.6487L23.374 1.61937L19.1032 10.7787Z" fill="black"/>
</svg>
