<svg width="181" height="52" viewBox="0 0 181 52" fill="none" xmlns="http://www.w3.org/2000/svg">
<path d="M173.523 7.60734C168.826 2.92834 162.197 0.0509822 154.543 0.0539574C146.894 0.051579 140.228 2.967 135.501 7.67454C132.559 10.6001 130.364 14.2194 129.124 18.2487C127.909 14.3235 125.754 10.8429 122.838 8.05474C118.147 3.56202 111.501 0.876236 103.74 0.878615H83.9818V30.6709C82.6756 27.9934 80.4266 26.0698 77.5921 24.6954C80.3896 22.5993 82.6024 19.3756 82.5749 14.5592V14.4247C82.5852 10.3478 80.907 6.85292 77.9192 4.49789C74.9392 2.13761 70.7392 0.878615 65.6789 0.878615H42.3718V30.6684C41.0656 27.991 38.8157 26.0674 35.9838 24.6948C38.7787 22.5986 40.9898 19.375 40.9631 14.5586V14.4241C40.976 10.3503 39.2988 6.85231 36.3101 4.49971C33.3301 2.13463 29.13 0.880397 24.068 0.880397H0.764343V51.1212H24.6165C30.1529 51.1188 34.8438 50.0073 38.2414 47.6292C40.0461 46.3738 41.4496 44.7328 42.3718 42.7741V51.1212H66.2265C71.7621 51.1188 76.4538 50.0098 79.8531 47.6292C81.657 46.3756 83.0596 44.7352 83.9818 42.7765V51.1212H103.75C111.515 51.1212 118.154 48.3991 122.843 43.8755C125.724 41.1016 127.856 37.6507 129.077 33.7719C130.299 37.8298 132.486 41.4658 135.431 44.3949C140.128 49.0709 146.76 51.9483 154.409 51.9459H154.42C162.067 51.9459 168.731 49.0298 173.459 44.3247C178.189 39.6194 180.992 33.1181 180.989 26.0014V25.8645C180.991 18.749 178.225 12.281 173.523 7.60734ZM13.269 12.413H22.501C24.5726 12.4083 26.0622 12.8397 26.9482 13.4834C27.823 14.1349 28.232 14.9209 28.25 16.2031V16.34C28.2216 17.8054 27.7481 18.5759 26.7415 19.2406C25.7203 19.8921 24.019 20.2747 21.8182 20.2716H13.269V12.413ZM30.9141 35.526C30.8856 37.0099 30.4147 37.8321 29.4391 38.514C28.4532 39.1834 26.8035 39.5945 24.6156 39.5897H13.2716V31.323H24.2738C26.8371 31.3176 28.554 31.8115 29.5261 32.5094C30.4922 33.2126 30.8908 34.0558 30.9141 35.3891V35.526ZM54.8799 12.413H64.111C66.18 12.4107 67.6756 12.8426 68.5547 13.4858C69.4304 14.1344 69.8419 14.9233 69.8626 16.2025V16.337C69.8316 17.8078 69.3581 18.5759 68.3489 19.2424C67.3303 19.8939 65.629 20.2741 63.4308 20.2663H54.8799V12.413ZM72.5241 35.5236C72.4991 37.0099 72.023 37.8321 71.0492 38.517C70.0641 39.1863 68.417 39.5951 66.2265 39.5897H54.8799V31.323H65.8821C68.4454 31.3176 70.1614 31.8139 71.1344 32.5094C72.0996 33.2126 72.5008 34.0527 72.5241 35.3891V35.5236ZM116.996 26.1371C116.932 34.0814 111.8 39.2512 103.739 39.3136H96.7628V12.6874H103.739C111.779 12.7468 116.934 18.0541 116.996 26.0032V26.1371ZM167.735 26.1371C167.699 33.8172 162.358 39.9158 154.543 39.9312C146.745 39.9205 141.247 33.6678 141.222 26.0032V25.8664C141.258 18.1862 146.598 12.0876 154.409 12.0698C162.21 12.0798 167.707 18.3332 167.736 26.0032V26.1371H167.735Z" fill="black"/>
</svg>
