<svg width="260" height="59" viewBox="0 0 260 59" fill="none" xmlns="http://www.w3.org/2000/svg">
<g clip-path="url(#clip0_1_953)">
<path d="M0 29.5C0 13.2076 13.2076 0 29.5 0H230.5C246.792 0 260 13.2076 260 29.5C260 45.7924 246.792 59 230.5 59H29.5C13.2076 59 0 45.7924 0 29.5Z" fill="white"/>
<path d="M130 29.5C201.797 29.5 260 22.8962 260 14.75C260 6.6038 201.797 0 130 0C58.203 0 0 6.6038 0 14.75C0 22.8962 58.203 29.5 130 29.5Z" fill="#FFD300"/>
<path d="M100.351 19.7219C100.519 20.8785 108.13 21.5787 114.799 21.028L168.431 16.2921C171.351 16.0337 173.333 15.5604 173.333 15.0063C173.333 14.4517 171.351 13.9783 168.431 13.7199L114.799 8.99059C108.13 8.43982 100.519 9.13354 100.351 10.2901V19.7219Z" fill="black"/>
<path d="M130 59C201.797 59 260 52.3962 260 44.25C260 36.1038 201.797 29.5 130 29.5C58.203 29.5 0 36.1038 0 44.25C0 52.3962 58.203 59 130 59Z" fill="white"/>
<path d="M100.351 49.2219C100.519 50.3785 108.13 51.0786 114.799 50.5279L168.431 45.792C171.351 45.5337 173.333 45.0603 173.333 44.5063C173.333 43.9516 171.351 43.4782 168.431 43.2198L114.799 38.4905C108.13 37.9398 100.519 38.6335 100.351 39.79V49.2219Z" fill="black"/>
</g>
<path d="M2 29.5C2 14.3122 14.3122 2 29.5 2H230.5C245.688 2 258 14.3122 258 29.5C258 44.6878 245.688 57 230.5 57H29.5C14.3122 57 2 44.6878 2 29.5Z" stroke="white" stroke-width="4"/>
<defs>
<clipPath id="clip0_1_953">
<path d="M0 29.5C0 13.2076 13.2076 0 29.5 0H230.5C246.792 0 260 13.2076 260 29.5C260 45.7924 246.792 59 230.5 59H29.5C13.2076 59 0 45.7924 0 29.5Z" fill="white"/>
</clipPath>
</defs>
</svg>
