<svg width="99" height="52" viewBox="0 0 99 52" fill="none" xmlns="http://www.w3.org/2000/svg">
<path d="M91.7843 41.1824C91.7843 41.1824 96.5888 34.9219 96.606 26.7532C96.6405 10.717 85.4126 0.305068 69.7764 0.288333C60.7098 0.271589 53.0123 4.69075 48.3455 11.1689C48.1819 10.9346 48.0096 10.717 47.846 10.4826C43.9456 5.31008 37.2038 0.0707157 26.7509 0.0539806C14.4554 0.0372368 4.95398 8.27303 1.82587 18.3333C1.79229 18.4505 1.75874 18.5844 1.72602 18.7016V18.7183C1.07336 20.9781 0.722046 23.3551 0.722046 25.8158C0.738405 28.1593 1.05701 30.4191 1.60893 32.545C3.5824 39.8935 8.72101 45.9532 15.4887 49.2174C15.5403 49.2341 15.592 49.2675 15.6608 49.301C15.6953 49.3178 15.7297 49.3345 15.7642 49.3513C19.1738 50.908 23.0054 51.7785 27.0867 51.7952C35.7142 51.7282 43.3601 47.4932 48.0785 41.0151C48.1819 40.8812 48.2593 40.7472 48.3626 40.6133C52.9089 47.1752 60.4688 51.9458 69.854 51.9458C76.0792 51.9458 80.479 49.2843 81.2798 48.8658L82.9415 51.0419H98.8791L91.7843 41.1824ZM26.9317 37.5668C21.3608 37.5668 15.0409 33.1644 14.9204 26.1003C14.7912 18.7853 21.1111 13.9978 26.9317 14.1987C31.6673 14.3661 33.4755 15.7219 36.1016 18.3165C36.1016 18.3165 39.916 18.3165 43.7993 18.3165C44.1006 18.3165 44.3848 18.3165 44.6861 18.3165C44.6861 18.3165 44.6861 18.3165 44.6861 18.3333C44.3159 19.4716 44.0318 20.6266 43.8251 21.7984H28.7915V33.9678H35.3784C35.3784 34.2859 32.0031 37.5668 26.9317 37.5668ZM82.0805 29.4985L80.7287 27.6571H64.55L71.1283 37.165C64.2831 38.5042 57.8168 32.7793 57.9115 26.1171C58.0148 19.3042 63.4996 14.2154 70.0778 14.2489C77.2846 14.2991 84.4569 22.0662 82.0805 29.4985Z" fill="black"/>
</svg>
