<svg width="118" height="42" viewBox="0 0 118 42" fill="none" xmlns="http://www.w3.org/2000/svg">
<path d="M13.8158 41.7398C10.3286 41.602 7.47005 40.6522 5.23999 38.8884C4.81809 38.5514 3.80202 37.5411 3.45761 37.1149C2.55353 35.9828 1.94221 34.881 1.52892 33.6586C0.263206 29.8955 0.917616 24.9575 3.38876 19.5381C5.50689 14.8985 8.77018 10.2969 14.4702 3.9236C15.3054 2.98582 17.811 0.243164 17.8282 0.243164C17.8282 0.243164 17.6905 0.477888 17.5269 0.763726C16.0373 3.23248 14.7716 6.14033 14.0828 8.65778C12.972 12.6972 13.1098 16.1637 14.4788 18.8517C15.4173 20.7035 17.036 22.3075 18.8528 23.1943C22.0386 24.7459 26.6967 24.8743 32.3881 23.5699C32.7842 23.4795 52.2003 18.3514 75.5514 12.1736C98.8938 5.99529 117.991 0.944397 118 0.948548C118.009 0.95391 63.764 24.0423 35.6084 36.0203C31.1483 37.9167 29.9515 38.3957 27.8592 39.1278C22.495 40.9999 17.699 41.8932 13.8158 41.7398Z" fill="black"/>
</svg>
